<mxfile host="Electron" agent="Mozilla/5.0 (Macintosh; Intel Mac OS X 10_15_7) AppleWebKit/537.36 (KHTML, like Gecko) draw.io/28.1.2 Chrome/138.0.7204.243 Electron/37.4.0 Safari/537.36" version="28.1.2">
  <diagram id="topology" name="物理拓扑">
    <mxGraphModel dx="11" dy="3179" grid="1" gridSize="10" guides="1" tooltips="1" connect="1" arrows="1" fold="1" page="1" pageScale="1" pageWidth="1654" pageHeight="2339" background="#ffffff" math="0" shadow="0">
      <root>
        <mxCell id="0" />
        <mxCell id="1" parent="0" />
        <mxCell id="env_1" value="分机房" style="swimlane;fontStyle=1;align=center;verticalAlign=top;horizontal=1;startSize=30;collapsible=0;marginBottom=0;fillColor=#e1d5e7;strokeColor=#9673a6;fontSize=24;" parent="1" vertex="1">
          <mxGeometry x="1920" y="-1120" width="2750" height="910" as="geometry" />
        </mxCell>
        <mxCell id="dc_1_1" value="体育业务网" style="swimlane;fontStyle=1;align=center;verticalAlign=top;horizontal=1;startSize=25;collapsible=0;marginBottom=0;fillColor=#d5e8d4;strokeColor=#82b366;fontSize=24;" parent="env_1" vertex="1">
          <mxGeometry x="1600" y="50" width="1120" height="830" as="geometry" />
        </mxCell>
        <mxCell id="area_1_1_0" value="核心区" style="swimlane;fontStyle=1;align=center;verticalAlign=top;horizontal=1;startSize=20;collapsible=0;marginBottom=0;fillColor=#fff2cc;strokeColor=#d6b656;fontSize=24;" parent="dc_1_1" vertex="1">
          <mxGeometry x="480" y="130" width="368" height="130" as="geometry" />
        </mxCell>
        <mxCell id="device_1_1_0_0" value="CE8865-4C" style="rounded=1;whiteSpace=wrap;html=1;fillColor=#CCCCFF;strokeColor=#82b366;fontSize=24;" parent="area_1_1_0" vertex="1">
          <mxGeometry x="20" y="50" width="120" height="60" as="geometry" />
        </mxCell>
        <mxCell id="device_1_1_0_1" value="CE8865-4C" style="rounded=1;whiteSpace=wrap;html=1;fillColor=#CCCCFF;strokeColor=#82b366;fontSize=24;" parent="area_1_1_0" vertex="1">
          <mxGeometry x="230" y="50" width="120" height="60" as="geometry" />
        </mxCell>
        <mxCell id="area_1_1_1" value="资源池" style="swimlane;fontStyle=1;align=center;verticalAlign=top;horizontal=1;startSize=20;collapsible=0;marginBottom=0;fillColor=#fff2cc;strokeColor=#d6b656;fontSize=24;" parent="dc_1_1" vertex="1">
          <mxGeometry x="340" y="460" width="728" height="280" as="geometry" />
        </mxCell>
        <mxCell id="device_1_1_1_6" value="S5755-H48T4Y2CZ" style="rounded=1;whiteSpace=wrap;html=1;fillColor=#FFE6CC;strokeColor=#82b366;fontSize=24;" parent="area_1_1_1" vertex="1">
          <mxGeometry x="69" y="200" width="120" height="60" as="geometry" />
        </mxCell>
        <mxCell id="device_1_1_1_7" value="S5755-H48T4Y2CZ" style="rounded=1;whiteSpace=wrap;html=1;fillColor=#FFE6CC;strokeColor=#82b366;fontSize=24;" parent="area_1_1_1" vertex="1">
          <mxGeometry x="229" y="200" width="120" height="60" as="geometry" />
        </mxCell>
        <mxCell id="device_1_1_1_2" value="CE6881H-48T6CQ" style="rounded=1;whiteSpace=wrap;html=1;fillColor=#d5e8d4;strokeColor=#82b366;fontSize=24;" parent="area_1_1_1" vertex="1">
          <mxGeometry x="59" y="60" width="120" height="60" as="geometry" />
        </mxCell>
        <mxCell id="device_1_1_1_3" value="CE6881H-48T6CQ" style="rounded=1;whiteSpace=wrap;html=1;fillColor=#d5e8d4;strokeColor=#82b366;fontSize=24;" parent="area_1_1_1" vertex="1">
          <mxGeometry x="224" y="60" width="120" height="60" as="geometry" />
        </mxCell>
        <mxCell id="edge_61" value="" style="strokeWidth=2;strokeColor=#1976d2;dashed=0;edgeStyle=none;rounded=0;curved=0;html=1;startArrow=classic;endArrow=classic;fontSize=24;" parent="area_1_1_1" source="device_1_1_1_2" target="device_1_1_1_3" edge="1">
          <mxGeometry relative="1" as="geometry" />
        </mxCell>
        <mxCell id="device_1_1_1_0" value="CE6881H-48S6CQ" style="rounded=1;whiteSpace=wrap;html=1;fillColor=#FFFFCC;strokeColor=#82b366;fontSize=24;shadow=1;" parent="area_1_1_1" vertex="1">
          <mxGeometry x="369" y="60" width="120" height="60" as="geometry" />
        </mxCell>
        <mxCell id="device_1_1_1_1" value="CE6881H-48S6CQ" style="rounded=1;whiteSpace=wrap;html=1;fillColor=#FFFFCC;strokeColor=#82b366;fontSize=24;shadow=1;" parent="area_1_1_1" vertex="1">
          <mxGeometry x="549" y="60" width="120" height="60" as="geometry" />
        </mxCell>
        <mxCell id="edge_56" value="" style="strokeWidth=2;strokeColor=#1976d2;dashed=0;edgeStyle=none;rounded=0;curved=0;html=1;startArrow=classic;endArrow=classic;fontSize=24;" parent="area_1_1_1" source="device_1_1_1_0" target="device_1_1_1_1" edge="1">
          <mxGeometry relative="1" as="geometry" />
        </mxCell>
        <mxCell id="device_1_1_1_4" value="AD-1000-GA118&amp;nbsp;" style="rounded=1;whiteSpace=wrap;html=1;fillColor=#e1d5e7;strokeColor=#9673a6;fontSize=24;" parent="area_1_1_1" vertex="1">
          <mxGeometry x="384" y="190" width="120" height="60" as="geometry" />
        </mxCell>
        <mxCell id="device_1_1_1_5" value="AD-1000-GA118&amp;nbsp;" style="rounded=1;whiteSpace=wrap;html=1;fillColor=#e1d5e7;strokeColor=#9673a6;fontSize=24;" parent="area_1_1_1" vertex="1">
          <mxGeometry x="529" y="190" width="120" height="60" as="geometry" />
        </mxCell>
        <mxCell id="edge_62" value="" style="strokeWidth=2;strokeColor=#1976d2;dashed=0;edgeStyle=none;rounded=0;curved=0;html=1;startArrow=classic;endArrow=classic;fontSize=24;" parent="area_1_1_1" source="device_1_1_1_0" target="device_1_1_1_4" edge="1">
          <mxGeometry relative="1" as="geometry" />
        </mxCell>
        <mxCell id="edge_64" value="" style="strokeWidth=2;strokeColor=#1976d2;dashed=0;edgeStyle=none;rounded=0;curved=0;html=1;startArrow=classic;endArrow=classic;fontSize=24;" parent="area_1_1_1" source="device_1_1_1_1" target="device_1_1_1_4" edge="1">
          <mxGeometry relative="1" as="geometry" />
        </mxCell>
        <mxCell id="edge_63" value="" style="strokeWidth=2;strokeColor=#1976d2;dashed=0;edgeStyle=none;rounded=0;curved=0;html=1;startArrow=classic;endArrow=classic;fontSize=24;" parent="area_1_1_1" source="device_1_1_1_0" target="device_1_1_1_5" edge="1">
          <mxGeometry relative="1" as="geometry" />
        </mxCell>
        <mxCell id="edge_65" value="" style="strokeWidth=2;strokeColor=#1976d2;dashed=0;edgeStyle=none;rounded=0;curved=0;html=1;startArrow=classic;endArrow=classic;fontSize=24;" parent="area_1_1_1" source="device_1_1_1_1" target="device_1_1_1_5" edge="1">
          <mxGeometry relative="1" as="geometry" />
        </mxCell>
        <mxCell id="edge_50" value="" style="strokeWidth=2;strokeColor=#1976d2;dashed=0;edgeStyle=none;rounded=0;curved=0;html=1;startArrow=classic;endArrow=classic;fontSize=24;" parent="dc_1_1" source="device_1_1_0_0" target="device_1_1_1_2" edge="1">
          <mxGeometry relative="1" as="geometry" />
        </mxCell>
        <mxCell id="edge_54" value="" style="strokeWidth=2;strokeColor=#1976d2;dashed=0;edgeStyle=none;rounded=0;curved=0;html=1;startArrow=classic;endArrow=classic;fontSize=24;" parent="dc_1_1" source="device_1_1_0_1" target="device_1_1_1_2" edge="1">
          <mxGeometry relative="1" as="geometry" />
        </mxCell>
        <mxCell id="edge_48" value="" style="strokeWidth=2;strokeColor=#1976d2;dashed=0;edgeStyle=none;rounded=0;curved=0;html=1;startArrow=classic;endArrow=classic;fontSize=24;" parent="dc_1_1" source="device_1_1_0_0" target="device_1_1_1_0" edge="1">
          <mxGeometry relative="1" as="geometry" />
        </mxCell>
        <mxCell id="edge_52" value="" style="strokeWidth=2;strokeColor=#1976d2;dashed=0;edgeStyle=none;rounded=0;curved=0;html=1;startArrow=classic;endArrow=classic;fontSize=24;" parent="dc_1_1" source="device_1_1_0_1" target="device_1_1_1_0" edge="1">
          <mxGeometry relative="1" as="geometry" />
        </mxCell>
        <mxCell id="edge_49" value="" style="strokeWidth=2;strokeColor=#1976d2;dashed=0;edgeStyle=none;rounded=0;curved=0;html=1;startArrow=classic;endArrow=classic;fontSize=24;" parent="dc_1_1" source="device_1_1_0_0" target="device_1_1_1_1" edge="1">
          <mxGeometry relative="1" as="geometry" />
        </mxCell>
        <mxCell id="edge_53" value="" style="strokeWidth=2;strokeColor=#1976d2;dashed=0;edgeStyle=none;rounded=0;curved=0;html=1;startArrow=classic;endArrow=classic;fontSize=24;" parent="dc_1_1" source="device_1_1_0_1" target="device_1_1_1_1" edge="1">
          <mxGeometry relative="1" as="geometry" />
        </mxCell>
        <mxCell id="edge_51" value="" style="strokeWidth=2;strokeColor=#1976d2;dashed=0;edgeStyle=none;rounded=0;curved=0;html=1;startArrow=classic;endArrow=classic;fontSize=24;" parent="dc_1_1" source="device_1_1_0_0" target="device_1_1_1_3" edge="1">
          <mxGeometry relative="1" as="geometry" />
        </mxCell>
        <mxCell id="edge_55" value="" style="strokeWidth=2;strokeColor=#1976d2;dashed=0;edgeStyle=none;rounded=0;curved=0;html=1;startArrow=classic;endArrow=classic;fontSize=24;" parent="dc_1_1" source="device_1_1_0_1" target="device_1_1_1_3" edge="1">
          <mxGeometry relative="1" as="geometry" />
        </mxCell>
        <mxCell id="device_1_1_2_1" value="USG6635F" style="rounded=1;whiteSpace=wrap;html=1;fillColor=#FFCCCC;strokeColor=#d79b00;fontSize=24;" parent="dc_1_1" vertex="1">
          <mxGeometry x="930" y="140" width="150" height="60" as="geometry" />
        </mxCell>
        <mxCell id="edge_67" value="" style="strokeWidth=2;strokeColor=#1976d2;dashed=0;edgeStyle=none;rounded=0;curved=0;html=1;startArrow=classic;endArrow=classic;fontSize=24;" parent="dc_1_1" source="device_1_1_0_0" target="device_1_1_2_1" edge="1">
          <mxGeometry relative="1" as="geometry" />
        </mxCell>
        <mxCell id="edge_69" value="" style="strokeWidth=2;strokeColor=#1976d2;dashed=0;edgeStyle=none;rounded=0;curved=0;html=1;startArrow=classic;endArrow=classic;fontSize=24;" parent="dc_1_1" source="device_1_1_0_1" target="device_1_1_2_1" edge="1">
          <mxGeometry relative="1" as="geometry" />
        </mxCell>
        <mxCell id="device_1_1_2_0" value="USG6635F" style="rounded=1;whiteSpace=wrap;html=1;fillColor=#FFCCCC;strokeColor=#d79b00;fontSize=24;" parent="dc_1_1" vertex="1">
          <mxGeometry x="930" y="50" width="150" height="60" as="geometry" />
        </mxCell>
        <mxCell id="edge_66" value="" style="strokeWidth=2;strokeColor=#1976d2;dashed=0;edgeStyle=none;rounded=0;curved=0;html=1;startArrow=classic;endArrow=classic;fontSize=24;" parent="dc_1_1" source="device_1_1_0_0" target="device_1_1_2_0" edge="1">
          <mxGeometry relative="1" as="geometry" />
        </mxCell>
        <mxCell id="edge_68" value="" style="strokeWidth=2;strokeColor=#1976d2;dashed=0;edgeStyle=none;rounded=0;curved=0;html=1;startArrow=classic;endArrow=classic;fontSize=24;" parent="dc_1_1" source="device_1_1_0_1" target="device_1_1_2_0" edge="1">
          <mxGeometry relative="1" as="geometry" />
        </mxCell>
        <mxCell id="area_1_1_3" value="管理区" style="swimlane;fontStyle=1;align=center;verticalAlign=top;horizontal=1;startSize=20;collapsible=0;marginBottom=0;fillColor=#fff2cc;strokeColor=#d6b656;fontSize=24;" parent="dc_1_1" vertex="1">
          <mxGeometry x="20" y="230" width="448" height="130" as="geometry" />
        </mxCell>
        <mxCell id="device_1_1_3_0" value="S5755-H48T4Y2CZ" style="rounded=1;whiteSpace=wrap;html=1;fillColor=#FFE6CC;strokeColor=#82b366;fontSize=24;" parent="area_1_1_3" vertex="1">
          <mxGeometry x="20" y="50" width="120" height="60" as="geometry" />
        </mxCell>
        <mxCell id="device_1_1_3_1" value="S5755-H48T4Y2CZ" style="rounded=1;whiteSpace=wrap;html=1;fillColor=#FFE6CC;strokeColor=#82b366;fontSize=24;" parent="area_1_1_3" vertex="1">
          <mxGeometry x="170" y="50" width="120" height="60" as="geometry" />
        </mxCell>
        <mxCell id="IJFUQDZvneYW4hHzy4Lg-122" value="NF2248" style="rounded=1;whiteSpace=wrap;html=1;fillColor=#d5e8d4;strokeColor=#82b366;fontSize=24;" parent="area_1_1_3" vertex="1">
          <mxGeometry x="310" y="50" width="120" height="60" as="geometry" />
        </mxCell>
        <mxCell id="cS5eKQxaPtA6x0sGwhBx-4" value="" style="strokeWidth=2;strokeColor=#1976d2;dashed=0;edgeStyle=none;rounded=0;curved=0;html=1;startArrow=classic;endArrow=classic;fontSize=24;" parent="area_1_1_3" edge="1">
          <mxGeometry relative="1" as="geometry">
            <mxPoint x="171" y="84.88999999999999" as="sourcePoint" />
            <mxPoint x="140" y="84.88999999999999" as="targetPoint" />
          </mxGeometry>
        </mxCell>
        <mxCell id="cS5eKQxaPtA6x0sGwhBx-5" value="" style="strokeWidth=2;strokeColor=#1976d2;dashed=0;edgeStyle=none;rounded=0;curved=0;html=1;startArrow=classic;endArrow=classic;fontSize=24;" parent="area_1_1_3" edge="1">
          <mxGeometry relative="1" as="geometry">
            <mxPoint x="171" y="74.88999999999999" as="sourcePoint" />
            <mxPoint x="140" y="74.88999999999999" as="targetPoint" />
          </mxGeometry>
        </mxCell>
        <mxCell id="IJFUQDZvneYW4hHzy4Lg-132" value="" style="strokeWidth=2;strokeColor=#36393d;dashed=0;edgeStyle=none;rounded=0;curved=0;html=1;startArrow=classic;endArrow=classic;fontSize=24;fillColor=#cce5ff;" parent="dc_1_1" source="device_1_1_0_0" target="IJFUQDZvneYW4hHzy4Lg-122" edge="1">
          <mxGeometry relative="1" as="geometry">
            <mxPoint x="347" y="820" as="sourcePoint" />
            <mxPoint x="122" y="650" as="targetPoint" />
          </mxGeometry>
        </mxCell>
        <mxCell id="IJFUQDZvneYW4hHzy4Lg-133" value="" style="strokeWidth=2;strokeColor=#36393d;dashed=0;edgeStyle=none;rounded=0;curved=0;html=1;startArrow=classic;endArrow=classic;fontSize=24;fillColor=#cce5ff;" parent="dc_1_1" source="IJFUQDZvneYW4hHzy4Lg-122" target="device_1_1_0_1" edge="1">
          <mxGeometry relative="1" as="geometry">
            <mxPoint x="337" y="800" as="sourcePoint" />
            <mxPoint x="112" y="630" as="targetPoint" />
          </mxGeometry>
        </mxCell>
        <mxCell id="area_1_1_4" value="带外接入区" style="swimlane;fontStyle=1;align=center;verticalAlign=top;horizontal=1;startSize=20;collapsible=0;marginBottom=0;fillColor=#fff2cc;strokeColor=#d6b656;fontSize=24;" parent="dc_1_1" vertex="1">
          <mxGeometry x="50" y="460" width="150" height="130" as="geometry" />
        </mxCell>
        <mxCell id="device_1_1_4_0" value="S5755-H48T4Y2CZ" style="rounded=1;whiteSpace=wrap;html=1;fillColor=#FFE6CC;strokeColor=#82b366;fontSize=24;" parent="area_1_1_4" vertex="1">
          <mxGeometry x="20" y="50" width="120" height="60" as="geometry" />
        </mxCell>
        <mxCell id="edge_70" value="" style="strokeWidth=2;strokeColor=#1976d2;dashed=0;edgeStyle=none;rounded=0;curved=0;html=1;startArrow=classic;endArrow=classic;fontSize=24;" parent="dc_1_1" source="device_1_1_3_0" target="device_1_1_4_0" edge="1">
          <mxGeometry relative="1" as="geometry" />
        </mxCell>
        <mxCell id="edge_73" value="" style="strokeWidth=2;strokeColor=#1976d2;dashed=0;edgeStyle=none;rounded=0;curved=0;html=1;startArrow=classic;endArrow=classic;fontSize=24;" parent="dc_1_1" source="device_1_1_3_1" target="device_1_1_4_0" edge="1">
          <mxGeometry relative="1" as="geometry" />
        </mxCell>
        <mxCell id="dc_1_0" value="互联网区" style="swimlane;fontStyle=1;align=center;verticalAlign=top;horizontal=1;startSize=25;collapsible=0;marginBottom=0;fillColor=#d5e8d4;strokeColor=#82b366;fontSize=24;" parent="env_1" vertex="1">
          <mxGeometry x="20" y="50" width="1550" height="835" as="geometry" />
        </mxCell>
        <mxCell id="area_1_0_0" value="核心区" style="swimlane;fontStyle=1;align=center;verticalAlign=top;horizontal=1;startSize=20;collapsible=0;marginBottom=0;fillColor=#fff2cc;strokeColor=#d6b656;fontSize=24;" parent="dc_1_0" vertex="1">
          <mxGeometry x="410" y="140" width="430" height="130" as="geometry" />
        </mxCell>
        <mxCell id="device_1_0_0_0" value="CE8865-4C" style="rounded=1;whiteSpace=wrap;html=1;fillColor=#CCCCFF;strokeColor=#82b366;fontSize=24;" parent="area_1_0_0" vertex="1">
          <mxGeometry x="19" y="50" width="120" height="60" as="geometry" />
        </mxCell>
        <mxCell id="device_1_0_0_1" value="CE8865-4C" style="rounded=1;whiteSpace=wrap;html=1;fillColor=#CCCCFF;strokeColor=#82b366;fontSize=24;" parent="area_1_0_0" vertex="1">
          <mxGeometry x="260" y="50" width="120" height="60" as="geometry" />
        </mxCell>
        <mxCell id="cS5eKQxaPtA6x0sGwhBx-6" value="" style="strokeWidth=2;strokeColor=#1976d2;dashed=0;edgeStyle=none;rounded=0;curved=0;html=1;startArrow=classic;endArrow=classic;fontSize=24;" parent="area_1_0_0" edge="1">
          <mxGeometry relative="1" as="geometry">
            <mxPoint x="260" y="86" as="sourcePoint" />
            <mxPoint x="139" y="86" as="targetPoint" />
          </mxGeometry>
        </mxCell>
        <mxCell id="cS5eKQxaPtA6x0sGwhBx-7" value="" style="strokeWidth=2;strokeColor=#1976d2;dashed=0;edgeStyle=none;rounded=0;curved=0;html=1;startArrow=classic;endArrow=classic;fontSize=24;" parent="area_1_0_0" edge="1">
          <mxGeometry relative="1" as="geometry">
            <mxPoint x="260" y="86" as="sourcePoint" />
            <mxPoint x="139" y="86" as="targetPoint" />
          </mxGeometry>
        </mxCell>
        <mxCell id="cS5eKQxaPtA6x0sGwhBx-8" value="" style="strokeWidth=2;strokeColor=#1976d2;dashed=0;edgeStyle=none;rounded=0;curved=0;html=1;startArrow=classic;endArrow=classic;fontSize=24;" parent="area_1_0_0" edge="1">
          <mxGeometry relative="1" as="geometry">
            <mxPoint x="260" y="79.79999999999995" as="sourcePoint" />
            <mxPoint x="139" y="79.79999999999995" as="targetPoint" />
          </mxGeometry>
        </mxCell>
        <mxCell id="area_1_0_1" value="资源池" style="swimlane;fontStyle=1;align=center;verticalAlign=top;horizontal=1;startSize=20;collapsible=0;marginBottom=0;fillColor=#fff2cc;strokeColor=#d6b656;fontSize=24;" parent="dc_1_0" vertex="1">
          <mxGeometry x="20" y="457.5" width="1310" height="355" as="geometry" />
        </mxCell>
        <mxCell id="device_1_0_1_9" value="S5755-H48T4Y2CZ" style="rounded=1;whiteSpace=wrap;html=1;fillColor=#FFE6CC;strokeColor=#82b366;fontSize=24;" parent="area_1_0_1" vertex="1">
          <mxGeometry x="480" y="152.5" width="120" height="60" as="geometry" />
        </mxCell>
        <mxCell id="device_1_0_1_1" value="CE6881H-48S6CQ" style="rounded=1;whiteSpace=wrap;html=1;fillColor=#FFFFCC;strokeColor=#82b366;fontSize=24;" parent="area_1_0_1" vertex="1">
          <mxGeometry x="180" y="47.5" width="120" height="60" as="geometry" />
        </mxCell>
        <mxCell id="device_1_0_1_0" value="CE6881H-48S6CQ" style="rounded=1;whiteSpace=wrap;html=1;fillColor=#FFFFCC;strokeColor=#82b366;fontSize=24;" parent="area_1_0_1" vertex="1">
          <mxGeometry x="29" y="47.5" width="120" height="60" as="geometry" />
        </mxCell>
        <mxCell id="edge_14" value="" style="strokeWidth=2;strokeColor=#1976d2;dashed=0;edgeStyle=none;rounded=0;curved=0;html=1;startArrow=classic;endArrow=classic;fontSize=24;" parent="area_1_0_1" source="device_1_0_1_0" target="device_1_0_1_1" edge="1">
          <mxGeometry relative="1" as="geometry" />
        </mxCell>
        <mxCell id="device_1_0_1_6" value="AD-1000-GA118&amp;nbsp;" style="rounded=1;whiteSpace=wrap;html=1;fillColor=#e1d5e7;strokeColor=#9673a6;fontSize=24;" parent="area_1_0_1" vertex="1">
          <mxGeometry x="10" y="157.5" width="120" height="60" as="geometry" />
        </mxCell>
        <mxCell id="edge_29" value="" style="strokeWidth=2;strokeColor=#1976d2;dashed=0;edgeStyle=none;rounded=0;curved=0;html=1;startArrow=classic;endArrow=classic;fontSize=24;" parent="area_1_0_1" source="device_1_0_1_0" target="device_1_0_1_6" edge="1">
          <mxGeometry relative="1" as="geometry" />
        </mxCell>
        <mxCell id="edge_31" value="" style="strokeWidth=2;strokeColor=#1976d2;dashed=0;edgeStyle=none;rounded=0;curved=0;html=1;startArrow=classic;endArrow=classic;fontSize=24;" parent="area_1_0_1" source="device_1_0_1_1" target="device_1_0_1_6" edge="1">
          <mxGeometry relative="1" as="geometry" />
        </mxCell>
        <mxCell id="device_1_0_1_7" value="AD-1000-GA118&amp;nbsp;" style="rounded=1;whiteSpace=wrap;html=1;fillColor=#e1d5e7;strokeColor=#9673a6;fontSize=24;" parent="area_1_0_1" vertex="1">
          <mxGeometry x="200" y="157.5" width="120" height="60" as="geometry" />
        </mxCell>
        <mxCell id="edge_30" value="" style="strokeWidth=2;strokeColor=#1976d2;dashed=0;edgeStyle=none;rounded=0;curved=0;html=1;startArrow=classic;endArrow=classic;fontSize=24;" parent="area_1_0_1" source="device_1_0_1_0" target="device_1_0_1_7" edge="1">
          <mxGeometry relative="1" as="geometry" />
        </mxCell>
        <mxCell id="edge_32" value="" style="strokeWidth=2;strokeColor=#1976d2;dashed=0;edgeStyle=none;rounded=0;curved=0;html=1;startArrow=classic;endArrow=classic;fontSize=24;" parent="area_1_0_1" source="device_1_0_1_1" target="device_1_0_1_7" edge="1">
          <mxGeometry relative="1" as="geometry" />
        </mxCell>
        <mxCell id="device_1_0_1_3" value="CE6881H-48T6CQ" style="rounded=1;whiteSpace=wrap;html=1;fillColor=#d5e8d4;strokeColor=#82b366;fontSize=24;" parent="area_1_0_1" vertex="1">
          <mxGeometry x="500" y="47.5" width="120" height="60" as="geometry" />
        </mxCell>
        <mxCell id="edge_23" value="" style="strokeWidth=2;strokeColor=#1976d2;dashed=0;edgeStyle=none;rounded=0;curved=0;html=1;startArrow=classic;endArrow=classic;fontSize=24;" parent="area_1_0_1" source="device_1_0_1_2" target="device_1_0_1_3" edge="1">
          <mxGeometry relative="1" as="geometry" />
        </mxCell>
        <mxCell id="device_1_0_1_2" value="CE6881H-48T6CQ" style="rounded=1;whiteSpace=wrap;html=1;fillColor=#d5e8d4;strokeColor=#82b366;fontSize=24;" parent="area_1_0_1" vertex="1">
          <mxGeometry x="350" y="47.5" width="120" height="60" as="geometry" />
        </mxCell>
        <mxCell id="device_1_0_1_8" value="S5755-H48T4Y2CZ" style="rounded=1;whiteSpace=wrap;html=1;fillColor=#FFE6CC;strokeColor=#82b366;fontSize=24;" parent="area_1_0_1" vertex="1">
          <mxGeometry x="750" y="152.5" width="120" height="60" as="geometry" />
        </mxCell>
        <mxCell id="device_1_0_1_4" value="CE6881H-48T6CQ" style="rounded=1;whiteSpace=wrap;html=1;fillColor=#d5e8d4;strokeColor=#82b366;fontSize=24;" parent="area_1_0_1" vertex="1">
          <mxGeometry x="670" y="47.5" width="120" height="60" as="geometry" />
        </mxCell>
        <mxCell id="device_1_0_1_5" value="CE6881H-48T6CQ" style="rounded=1;whiteSpace=wrap;html=1;fillColor=#d5e8d4;strokeColor=#82b366;fontSize=24;" parent="area_1_0_1" vertex="1">
          <mxGeometry x="820" y="47.5" width="120" height="60" as="geometry" />
        </mxCell>
        <mxCell id="edge_28" value="" style="strokeWidth=2;strokeColor=#1976d2;dashed=0;edgeStyle=none;rounded=0;curved=0;html=1;startArrow=classic;endArrow=classic;fontSize=24;" parent="area_1_0_1" source="device_1_0_1_4" target="device_1_0_1_5" edge="1">
          <mxGeometry relative="1" as="geometry" />
        </mxCell>
        <mxCell id="n6acHzMr6DtbivNUdXAY-1" value="AD-1000-GA118&amp;nbsp;" style="rounded=1;whiteSpace=wrap;html=1;fillColor=#e1d5e7;strokeColor=#9673a6;fontSize=24;" parent="area_1_0_1" vertex="1">
          <mxGeometry x="275" y="267.5" width="120" height="60" as="geometry" />
        </mxCell>
        <mxCell id="n6acHzMr6DtbivNUdXAY-2" value="AD-1000-GA118&amp;nbsp;" style="rounded=1;whiteSpace=wrap;html=1;fillColor=#e1d5e7;strokeColor=#9673a6;fontSize=24;" parent="area_1_0_1" vertex="1">
          <mxGeometry x="85" y="267.5" width="120" height="60" as="geometry" />
        </mxCell>
        <mxCell id="n6acHzMr6DtbivNUdXAY-3" value="" style="strokeWidth=2;strokeColor=#1976d2;dashed=0;edgeStyle=none;rounded=0;curved=0;html=1;startArrow=classic;endArrow=classic;fontSize=24;" parent="area_1_0_1" source="device_1_0_1_0" target="n6acHzMr6DtbivNUdXAY-1" edge="1">
          <mxGeometry relative="1" as="geometry">
            <mxPoint x="200.36000000000013" y="200.5" as="sourcePoint" />
            <mxPoint x="122.36000000000013" y="250.5" as="targetPoint" />
          </mxGeometry>
        </mxCell>
        <mxCell id="n6acHzMr6DtbivNUdXAY-4" value="" style="strokeWidth=2;strokeColor=#1976d2;dashed=0;edgeStyle=none;rounded=0;curved=0;html=1;startArrow=classic;endArrow=classic;fontSize=24;" parent="area_1_0_1" source="device_1_0_1_1" target="n6acHzMr6DtbivNUdXAY-2" edge="1">
          <mxGeometry relative="1" as="geometry">
            <mxPoint x="138" y="207.5" as="sourcePoint" />
            <mxPoint x="60" y="257.5" as="targetPoint" />
          </mxGeometry>
        </mxCell>
        <mxCell id="n6acHzMr6DtbivNUdXAY-5" value="" style="strokeWidth=2;strokeColor=#1976d2;dashed=0;edgeStyle=none;rounded=0;curved=0;html=1;startArrow=classic;endArrow=classic;fontSize=24;" parent="area_1_0_1" source="device_1_0_1_0" target="n6acHzMr6DtbivNUdXAY-2" edge="1">
          <mxGeometry relative="1" as="geometry">
            <mxPoint x="168" y="257" as="sourcePoint" />
            <mxPoint x="90" y="307" as="targetPoint" />
          </mxGeometry>
        </mxCell>
        <mxCell id="n6acHzMr6DtbivNUdXAY-6" value="" style="strokeWidth=2;strokeColor=#1976d2;dashed=0;edgeStyle=none;rounded=0;curved=0;html=1;startArrow=classic;endArrow=classic;fontSize=24;" parent="area_1_0_1" source="device_1_0_1_1" target="n6acHzMr6DtbivNUdXAY-1" edge="1">
          <mxGeometry relative="1" as="geometry">
            <mxPoint x="230.36000000000013" y="250" as="sourcePoint" />
            <mxPoint x="152.36000000000013" y="300" as="targetPoint" />
          </mxGeometry>
        </mxCell>
        <mxCell id="cH8NUeWhS5mLNvdjrWfj-1" value="CE6881H-48T6CQ" style="rounded=1;whiteSpace=wrap;html=1;fillColor=#d5e8d4;strokeColor=#82b366;fontSize=24;" parent="area_1_0_1" vertex="1">
          <mxGeometry x="1010" y="47.5" width="120" height="60" as="geometry" />
        </mxCell>
        <mxCell id="cH8NUeWhS5mLNvdjrWfj-2" value="CE6881H-48T6CQ" style="rounded=1;whiteSpace=wrap;html=1;fillColor=#d5e8d4;strokeColor=#82b366;fontSize=24;" parent="area_1_0_1" vertex="1">
          <mxGeometry x="1160" y="47.5" width="120" height="60" as="geometry" />
        </mxCell>
        <mxCell id="cH8NUeWhS5mLNvdjrWfj-3" value="" style="strokeWidth=2;strokeColor=#1976d2;dashed=0;edgeStyle=none;rounded=0;curved=0;html=1;startArrow=classic;endArrow=classic;fontSize=24;" parent="area_1_0_1" source="cH8NUeWhS5mLNvdjrWfj-1" target="cH8NUeWhS5mLNvdjrWfj-2" edge="1">
          <mxGeometry relative="1" as="geometry" />
        </mxCell>
        <mxCell id="cH8NUeWhS5mLNvdjrWfj-5" value="OceanStor 5510" style="rounded=1;whiteSpace=wrap;html=1;fillColor=#E5CCFF;strokeColor=#82b366;fontSize=24;" parent="area_1_0_1" vertex="1">
          <mxGeometry x="750" y="252.5" width="120" height="60" as="geometry" />
        </mxCell>
        <mxCell id="cH8NUeWhS5mLNvdjrWfj-4" value="OceanStor 5510" style="rounded=1;whiteSpace=wrap;html=1;fillColor=#E5CCFF;strokeColor=#82b366;fontSize=24;" parent="area_1_0_1" vertex="1">
          <mxGeometry x="480" y="252.5" width="120" height="60" as="geometry" />
        </mxCell>
        <mxCell id="cH8NUeWhS5mLNvdjrWfj-6" value="OceanStor 5510" style="rounded=1;whiteSpace=wrap;html=1;fillColor=#E5CCFF;strokeColor=#82b366;fontSize=24;" parent="area_1_0_1" vertex="1">
          <mxGeometry x="1010" y="252.5" width="120" height="60" as="geometry" />
        </mxCell>
        <mxCell id="cH8NUeWhS5mLNvdjrWfj-7" value="AB2110" style="rounded=1;whiteSpace=wrap;html=1;fillColor=#E5CCFF;strokeColor=#82b366;fontSize=24;" parent="area_1_0_1" vertex="1">
          <mxGeometry x="1150" y="252.5" width="120" height="60" as="geometry" />
        </mxCell>
        <mxCell id="edge_33" value="" style="strokeWidth=2;strokeColor=#1976d2;dashed=0;edgeStyle=none;rounded=0;curved=0;html=1;startArrow=classic;endArrow=classic;fontSize=24;" parent="dc_1_0" source="device_1_0_0_0" target="device_1_0_2_0" edge="1">
          <mxGeometry relative="1" as="geometry" />
        </mxCell>
        <mxCell id="edge_35" value="" style="strokeWidth=2;strokeColor=#1976d2;dashed=0;edgeStyle=none;rounded=0;curved=0;html=1;startArrow=classic;endArrow=classic;fontSize=24;" parent="dc_1_0" source="device_1_0_0_1" target="device_1_0_2_0" edge="1">
          <mxGeometry relative="1" as="geometry" />
        </mxCell>
        <mxCell id="edge_34" value="" style="strokeWidth=2;strokeColor=#1976d2;dashed=0;edgeStyle=none;rounded=0;curved=0;html=1;startArrow=classic;endArrow=classic;fontSize=24;" parent="dc_1_0" source="device_1_0_0_0" target="device_1_0_2_1" edge="1">
          <mxGeometry relative="1" as="geometry" />
        </mxCell>
        <mxCell id="edge_36" value="" style="strokeWidth=2;strokeColor=#1976d2;dashed=0;edgeStyle=none;rounded=0;curved=0;html=1;startArrow=classic;endArrow=classic;fontSize=24;" parent="dc_1_0" source="device_1_0_0_1" target="device_1_0_2_1" edge="1">
          <mxGeometry relative="1" as="geometry" />
        </mxCell>
        <mxCell id="edge_5" value="" style="strokeWidth=2;strokeColor=#1976d2;dashed=0;edgeStyle=none;rounded=0;curved=0;html=1;startArrow=classic;endArrow=classic;fontSize=24;" parent="dc_1_0" source="device_1_0_0_0" target="device_1_0_1_3" edge="1">
          <mxGeometry relative="1" as="geometry" />
        </mxCell>
        <mxCell id="edge_11" value="" style="strokeWidth=2;strokeColor=#1976d2;dashed=0;edgeStyle=none;rounded=0;curved=0;html=1;startArrow=classic;endArrow=classic;fontSize=24;" parent="dc_1_0" source="device_1_0_0_1" target="device_1_0_1_3" edge="1">
          <mxGeometry relative="1" as="geometry" />
        </mxCell>
        <mxCell id="edge_37" value="" style="strokeWidth=2;strokeColor=#1976d2;dashed=0;edgeStyle=none;rounded=0;curved=0;html=1;startArrow=classic;endArrow=classic;fontSize=24;" parent="dc_1_0" source="device_1_0_0_0" target="device_1_0_3_0" edge="1">
          <mxGeometry relative="1" as="geometry" />
        </mxCell>
        <mxCell id="edge_39" value="" style="strokeWidth=2;strokeColor=#1976d2;dashed=0;edgeStyle=none;rounded=0;curved=0;html=1;startArrow=classic;endArrow=classic;fontSize=24;" parent="dc_1_0" source="device_1_0_0_1" target="device_1_0_3_0" edge="1">
          <mxGeometry relative="1" as="geometry" />
        </mxCell>
        <mxCell id="edge_38" value="" style="strokeWidth=2;strokeColor=#1976d2;dashed=0;edgeStyle=none;rounded=0;curved=0;html=1;startArrow=classic;endArrow=classic;fontSize=24;" parent="dc_1_0" source="device_1_0_0_0" target="device_1_0_3_1" edge="1">
          <mxGeometry relative="1" as="geometry" />
        </mxCell>
        <mxCell id="edge_40" value="" style="strokeWidth=2;strokeColor=#1976d2;dashed=0;edgeStyle=none;rounded=0;curved=0;html=1;startArrow=classic;endArrow=classic;fontSize=24;" parent="dc_1_0" source="device_1_0_0_1" target="device_1_0_3_1" edge="1">
          <mxGeometry relative="1" as="geometry" />
        </mxCell>
        <mxCell id="edge_3" value="" style="strokeWidth=2;strokeColor=#1976d2;dashed=0;edgeStyle=none;rounded=0;curved=0;html=1;startArrow=classic;endArrow=classic;fontSize=24;" parent="dc_1_0" source="device_1_0_0_0" target="device_1_0_1_1" edge="1">
          <mxGeometry relative="1" as="geometry" />
        </mxCell>
        <mxCell id="edge_9" value="" style="strokeWidth=2;strokeColor=#1976d2;dashed=0;edgeStyle=none;rounded=0;curved=0;html=1;startArrow=classic;endArrow=classic;fontSize=24;" parent="dc_1_0" source="device_1_0_0_1" target="device_1_0_1_1" edge="1">
          <mxGeometry relative="1" as="geometry" />
        </mxCell>
        <mxCell id="edge_2" value="" style="strokeWidth=2;strokeColor=#1976d2;dashed=0;edgeStyle=none;rounded=0;curved=0;html=1;startArrow=classic;endArrow=classic;fontSize=24;" parent="dc_1_0" source="device_1_0_0_0" target="device_1_0_1_0" edge="1">
          <mxGeometry relative="1" as="geometry" />
        </mxCell>
        <mxCell id="edge_8" value="" style="strokeWidth=2;strokeColor=#1976d2;dashed=0;edgeStyle=none;rounded=0;curved=0;html=1;startArrow=classic;endArrow=classic;fontSize=24;" parent="dc_1_0" source="device_1_0_0_1" target="device_1_0_1_0" edge="1">
          <mxGeometry relative="1" as="geometry" />
        </mxCell>
        <mxCell id="edge_6" value="" style="strokeWidth=2;strokeColor=#1976d2;dashed=0;edgeStyle=none;rounded=0;curved=0;html=1;startArrow=classic;endArrow=classic;fontSize=24;" parent="dc_1_0" source="device_1_0_0_0" target="device_1_0_1_4" edge="1">
          <mxGeometry relative="1" as="geometry" />
        </mxCell>
        <mxCell id="edge_12" value="" style="strokeWidth=2;strokeColor=#1976d2;dashed=0;edgeStyle=none;rounded=0;curved=0;html=1;startArrow=classic;endArrow=classic;fontSize=24;" parent="dc_1_0" source="device_1_0_0_1" target="device_1_0_1_4" edge="1">
          <mxGeometry relative="1" as="geometry" />
        </mxCell>
        <mxCell id="edge_7" value="" style="strokeWidth=2;strokeColor=#1976d2;dashed=0;edgeStyle=none;rounded=0;curved=0;html=1;startArrow=classic;endArrow=classic;fontSize=24;" parent="dc_1_0" source="device_1_0_0_0" target="device_1_0_1_5" edge="1">
          <mxGeometry relative="1" as="geometry" />
        </mxCell>
        <mxCell id="edge_13" value="" style="strokeWidth=2;strokeColor=#1976d2;dashed=0;edgeStyle=none;rounded=0;curved=0;html=1;startArrow=classic;endArrow=classic;fontSize=24;" parent="dc_1_0" source="device_1_0_0_1" target="device_1_0_1_5" edge="1">
          <mxGeometry relative="1" as="geometry" />
        </mxCell>
        <mxCell id="device_1_0_2_0" value="USG6635F" style="rounded=1;whiteSpace=wrap;html=1;fillColor=#FFCCCC;strokeColor=#d79b00;fontSize=24;" parent="dc_1_0" vertex="1">
          <mxGeometry x="50" y="250" width="150" height="60" as="geometry" />
        </mxCell>
        <mxCell id="device_1_0_2_1" value="USG6635F" style="rounded=1;whiteSpace=wrap;html=1;fillColor=#FFCCCC;strokeColor=#d79b00;fontSize=24;" parent="dc_1_0" vertex="1">
          <mxGeometry x="50" y="330" width="150" height="60" as="geometry" />
        </mxCell>
        <mxCell id="device_1_0_3_0" value="USG6635F" style="rounded=1;whiteSpace=wrap;html=1;fillColor=#FFCCCC;strokeColor=#d79b00;fontSize=24;" parent="dc_1_0" vertex="1">
          <mxGeometry x="50" y="50" width="150" height="60" as="geometry" />
        </mxCell>
        <mxCell id="device_1_0_3_1" value="USG6635F" style="rounded=1;whiteSpace=wrap;html=1;fillColor=#FFCCCC;strokeColor=#d79b00;fontSize=24;" parent="dc_1_0" vertex="1">
          <mxGeometry x="50" y="130" width="150" height="60" as="geometry" />
        </mxCell>
        <mxCell id="IJFUQDZvneYW4hHzy4Lg-114" value="DWDM" style="swimlane;fontStyle=1;align=center;verticalAlign=top;horizontal=1;startSize=20;collapsible=0;marginBottom=0;fillColor=#fff2cc;strokeColor=#d6b656;fontSize=24;" parent="dc_1_0" vertex="1">
          <mxGeometry x="1300" width="360" height="130" as="geometry" />
        </mxCell>
        <mxCell id="IJFUQDZvneYW4hHzy4Lg-115" value="OptiXtrans E6616" style="rounded=1;whiteSpace=wrap;html=1;fillColor=#d5e8d4;strokeColor=#82b366;fontSize=24;" parent="IJFUQDZvneYW4hHzy4Lg-114" vertex="1">
          <mxGeometry x="20" y="50" width="120" height="60" as="geometry" />
        </mxCell>
        <mxCell id="IJFUQDZvneYW4hHzy4Lg-116" value="OptiXtrans E6616" style="rounded=1;whiteSpace=wrap;html=1;fillColor=#d5e8d4;strokeColor=#82b366;fontSize=24;" parent="IJFUQDZvneYW4hHzy4Lg-114" vertex="1">
          <mxGeometry x="220" y="50" width="110" height="60" as="geometry" />
        </mxCell>
        <mxCell id="IJFUQDZvneYW4hHzy4Lg-120" value="" style="strokeWidth=2;strokeColor=#1976d2;dashed=0;edgeStyle=none;rounded=0;curved=0;html=1;startArrow=classic;endArrow=classic;fontSize=24;" parent="dc_1_0" source="IJFUQDZvneYW4hHzy4Lg-116" target="device_1_0_0_1" edge="1">
          <mxGeometry relative="1" as="geometry">
            <mxPoint x="1195.27" y="-275" as="sourcePoint" />
            <mxPoint x="1203.27" y="75" as="targetPoint" />
          </mxGeometry>
        </mxCell>
        <mxCell id="IJFUQDZvneYW4hHzy4Lg-119" value="" style="strokeWidth=2;strokeColor=#1976d2;dashed=0;edgeStyle=none;rounded=0;curved=0;html=1;startArrow=classic;endArrow=classic;fontSize=24;" parent="dc_1_0" source="IJFUQDZvneYW4hHzy4Lg-115" target="device_1_0_0_0" edge="1">
          <mxGeometry relative="1" as="geometry">
            <mxPoint x="1000.27" y="-275" as="sourcePoint" />
            <mxPoint x="1008.27" y="75" as="targetPoint" />
          </mxGeometry>
        </mxCell>
        <mxCell id="area_1_0_4" value="管理区" style="swimlane;fontStyle=1;align=center;verticalAlign=top;horizontal=1;startSize=20;collapsible=0;marginBottom=0;fillColor=#fff2cc;strokeColor=#d6b656;fontSize=24;" parent="dc_1_0" vertex="1">
          <mxGeometry x="910" y="230" width="500" height="130" as="geometry" />
        </mxCell>
        <mxCell id="IJFUQDZvneYW4hHzy4Lg-121" value="NF2248" style="rounded=1;whiteSpace=wrap;html=1;fillColor=#d5e8d4;strokeColor=#82b366;fontSize=24;" parent="area_1_0_4" vertex="1">
          <mxGeometry x="30" y="50" width="120" height="60" as="geometry" />
        </mxCell>
        <mxCell id="device_1_0_4_0" value="S5755-H48T4Y2CZ" style="rounded=1;whiteSpace=wrap;html=1;fillColor=#FFE6CC;strokeColor=#82b366;fontSize=24;" parent="area_1_0_4" vertex="1">
          <mxGeometry x="189" y="50" width="120" height="60" as="geometry" />
        </mxCell>
        <mxCell id="device_1_0_4_1" value="S5755-H48T4Y2CZ" style="rounded=1;whiteSpace=wrap;html=1;fillColor=#FFE6CC;strokeColor=#82b366;fontSize=24;" parent="area_1_0_4" vertex="1">
          <mxGeometry x="340" y="50" width="120" height="60" as="geometry" />
        </mxCell>
        <mxCell id="cS5eKQxaPtA6x0sGwhBx-1" value="" style="strokeWidth=2;strokeColor=#1976d2;dashed=0;edgeStyle=none;rounded=0;curved=0;html=1;startArrow=classic;endArrow=classic;fontSize=24;" parent="area_1_0_4" source="device_1_0_4_1" target="device_1_0_4_0" edge="1">
          <mxGeometry relative="1" as="geometry">
            <mxPoint x="389.09000000000015" y="60" as="sourcePoint" />
            <mxPoint x="120.09000000000015" y="330" as="targetPoint" />
          </mxGeometry>
        </mxCell>
        <mxCell id="edge_43" value="" style="strokeWidth=2;strokeColor=#1976d2;dashed=0;edgeStyle=none;rounded=0;curved=0;html=1;startArrow=classic;endArrow=classic;fontSize=24;" parent="dc_1_0" source="device_1_0_4_0" target="device_1_0_1_9" edge="1">
          <mxGeometry relative="1" as="geometry" />
        </mxCell>
        <mxCell id="edge_42" value="" style="strokeWidth=2;strokeColor=#1976d2;dashed=0;edgeStyle=none;rounded=0;curved=0;html=1;startArrow=classic;endArrow=classic;fontSize=24;" parent="dc_1_0" source="device_1_0_4_0" target="device_1_0_1_8" edge="1">
          <mxGeometry relative="1" as="geometry" />
        </mxCell>
        <mxCell id="edge_46" value="" style="strokeWidth=2;strokeColor=#1976d2;dashed=0;edgeStyle=none;rounded=0;curved=0;html=1;startArrow=classic;endArrow=classic;fontSize=24;" parent="dc_1_0" source="device_1_0_4_1" target="device_1_0_1_9" edge="1">
          <mxGeometry relative="1" as="geometry" />
        </mxCell>
        <mxCell id="edge_45" value="" style="strokeWidth=2;strokeColor=#1976d2;dashed=0;edgeStyle=none;rounded=0;curved=0;html=1;startArrow=classic;endArrow=classic;fontSize=24;" parent="dc_1_0" source="device_1_0_4_1" target="device_1_0_1_8" edge="1">
          <mxGeometry relative="1" as="geometry" />
        </mxCell>
        <mxCell id="IJFUQDZvneYW4hHzy4Lg-123" value="" style="strokeWidth=2;strokeColor=#1976d2;dashed=0;edgeStyle=none;rounded=0;curved=0;html=1;startArrow=classic;endArrow=classic;fontSize=24;" parent="dc_1_0" source="IJFUQDZvneYW4hHzy4Lg-115" target="device_1_0_4_0" edge="1">
          <mxGeometry relative="1" as="geometry">
            <mxPoint x="1531" y="106.51999999999998" as="sourcePoint" />
            <mxPoint x="660" y="229.51999999999998" as="targetPoint" />
          </mxGeometry>
        </mxCell>
        <mxCell id="IJFUQDZvneYW4hHzy4Lg-124" value="" style="strokeWidth=2;strokeColor=#1976d2;dashed=0;edgeStyle=none;rounded=0;curved=0;html=1;startArrow=classic;endArrow=classic;fontSize=24;" parent="dc_1_0" source="IJFUQDZvneYW4hHzy4Lg-116" target="device_1_0_4_1" edge="1">
          <mxGeometry relative="1" as="geometry">
            <mxPoint x="1551" y="130" as="sourcePoint" />
            <mxPoint x="680" y="253" as="targetPoint" />
          </mxGeometry>
        </mxCell>
        <mxCell id="IJFUQDZvneYW4hHzy4Lg-125" value="" style="strokeWidth=2;strokeColor=#1976d2;dashed=0;edgeStyle=none;rounded=0;curved=0;html=1;startArrow=classic;endArrow=classic;fontSize=24;" parent="dc_1_0" source="IJFUQDZvneYW4hHzy4Lg-115" target="IJFUQDZvneYW4hHzy4Lg-121" edge="1">
          <mxGeometry relative="1" as="geometry">
            <mxPoint x="1730" y="108" as="sourcePoint" />
            <mxPoint x="1389" y="280" as="targetPoint" />
          </mxGeometry>
        </mxCell>
        <mxCell id="IJFUQDZvneYW4hHzy4Lg-134" value="" style="strokeWidth=2;strokeColor=#36393d;dashed=0;edgeStyle=none;rounded=0;curved=0;html=1;startArrow=classic;endArrow=classic;fontSize=24;fillColor=#cce5ff;" parent="dc_1_0" source="IJFUQDZvneYW4hHzy4Lg-121" target="device_1_0_0_1" edge="1">
          <mxGeometry relative="1" as="geometry">
            <mxPoint x="1475" y="835" as="sourcePoint" />
            <mxPoint x="1250" y="665" as="targetPoint" />
          </mxGeometry>
        </mxCell>
        <mxCell id="IJFUQDZvneYW4hHzy4Lg-135" value="" style="strokeWidth=2;strokeColor=#36393d;dashed=0;edgeStyle=none;rounded=0;curved=0;html=1;startArrow=classic;endArrow=classic;fontSize=24;fillColor=#cce5ff;" parent="dc_1_0" source="device_1_0_0_0" target="IJFUQDZvneYW4hHzy4Lg-121" edge="1">
          <mxGeometry relative="1" as="geometry">
            <mxPoint x="1385" y="835" as="sourcePoint" />
            <mxPoint x="1160" y="665" as="targetPoint" />
          </mxGeometry>
        </mxCell>
        <mxCell id="edge_41" value="" style="strokeWidth=2;strokeColor=#1976d2;dashed=0;edgeStyle=none;rounded=0;curved=0;html=1;startArrow=classic;endArrow=classic;fontSize=24;" parent="dc_1_0" source="device_1_0_4_0" target="device_1_0_5_0" edge="1">
          <mxGeometry relative="1" as="geometry" />
        </mxCell>
        <mxCell id="area_1_0_5" value="带外接入区" style="swimlane;fontStyle=1;align=center;verticalAlign=top;horizontal=1;startSize=20;collapsible=0;marginBottom=0;fillColor=#fff2cc;strokeColor=#d6b656;fontSize=24;" parent="dc_1_0" vertex="1">
          <mxGeometry x="1368" y="457.5" width="150" height="130" as="geometry" />
        </mxCell>
        <mxCell id="device_1_0_5_0" value="S5755-H48T4Y2CZ" style="rounded=1;whiteSpace=wrap;html=1;fillColor=#FFE6CC;strokeColor=#82b366;fontSize=24;" parent="area_1_0_5" vertex="1">
          <mxGeometry x="19" y="50" width="120" height="60" as="geometry" />
        </mxCell>
        <mxCell id="edge_44" value="" style="strokeWidth=2;strokeColor=#1976d2;dashed=0;edgeStyle=none;rounded=0;curved=0;html=1;startArrow=classic;endArrow=classic;fontSize=24;" parent="dc_1_0" source="device_1_0_4_1" target="device_1_0_5_0" edge="1">
          <mxGeometry relative="1" as="geometry" />
        </mxCell>
        <mxCell id="cH8NUeWhS5mLNvdjrWfj-8" value="" style="strokeWidth=2;strokeColor=#1976d2;dashed=0;edgeStyle=none;rounded=0;curved=0;html=1;startArrow=classic;endArrow=classic;fontSize=24;" parent="dc_1_0" source="device_1_0_0_0" target="cH8NUeWhS5mLNvdjrWfj-1" edge="1">
          <mxGeometry relative="1" as="geometry">
            <mxPoint x="1472.3600000000001" y="500" as="sourcePoint" />
            <mxPoint x="1080.3600000000001" y="770" as="targetPoint" />
          </mxGeometry>
        </mxCell>
        <mxCell id="cH8NUeWhS5mLNvdjrWfj-9" value="" style="strokeWidth=2;strokeColor=#1976d2;dashed=0;edgeStyle=none;rounded=0;curved=0;html=1;startArrow=classic;endArrow=classic;fontSize=24;" parent="dc_1_0" source="IJFUQDZvneYW4hHzy4Lg-115" target="cH8NUeWhS5mLNvdjrWfj-1" edge="1">
          <mxGeometry relative="1" as="geometry">
            <mxPoint x="1518" y="550" as="sourcePoint" />
            <mxPoint x="1126" y="820" as="targetPoint" />
          </mxGeometry>
        </mxCell>
        <mxCell id="cH8NUeWhS5mLNvdjrWfj-10" value="" style="strokeWidth=2;strokeColor=#1976d2;dashed=0;edgeStyle=none;rounded=0;curved=0;html=1;startArrow=classic;endArrow=classic;fontSize=24;" parent="dc_1_0" source="IJFUQDZvneYW4hHzy4Lg-116" target="cH8NUeWhS5mLNvdjrWfj-2" edge="1">
          <mxGeometry relative="1" as="geometry">
            <mxPoint x="1550" y="570" as="sourcePoint" />
            <mxPoint x="1158" y="840" as="targetPoint" />
          </mxGeometry>
        </mxCell>
        <mxCell id="cH8NUeWhS5mLNvdjrWfj-11" value="" style="strokeWidth=2;strokeColor=#1976d2;dashed=0;edgeStyle=none;rounded=0;curved=0;html=1;startArrow=classic;endArrow=classic;fontSize=24;" parent="dc_1_0" source="device_1_0_0_1" target="cH8NUeWhS5mLNvdjrWfj-2" edge="1">
          <mxGeometry relative="1" as="geometry">
            <mxPoint x="1504.3600000000001" y="520" as="sourcePoint" />
            <mxPoint x="1112.3600000000001" y="790" as="targetPoint" />
          </mxGeometry>
        </mxCell>
        <mxCell id="cH8NUeWhS5mLNvdjrWfj-12" value="" style="strokeWidth=2;strokeColor=#1976d2;dashed=0;edgeStyle=none;rounded=0;curved=0;html=1;startArrow=classic;endArrow=classic;fontSize=24;" parent="dc_1_0" source="device_1_0_0_1" target="cH8NUeWhS5mLNvdjrWfj-1" edge="1">
          <mxGeometry relative="1" as="geometry">
            <mxPoint x="1352" y="457.5" as="sourcePoint" />
            <mxPoint x="960" y="727.5" as="targetPoint" />
          </mxGeometry>
        </mxCell>
        <mxCell id="cH8NUeWhS5mLNvdjrWfj-13" value="" style="strokeWidth=2;strokeColor=#1976d2;dashed=0;edgeStyle=none;rounded=0;curved=0;html=1;startArrow=classic;endArrow=classic;fontSize=24;" parent="dc_1_0" source="cH8NUeWhS5mLNvdjrWfj-2" target="device_1_0_0_0" edge="1">
          <mxGeometry relative="1" as="geometry">
            <mxPoint x="1300" y="510" as="sourcePoint" />
            <mxPoint x="908" y="780" as="targetPoint" />
          </mxGeometry>
        </mxCell>
        <mxCell id="cS5eKQxaPtA6x0sGwhBx-3" value="" style="strokeWidth=2;strokeColor=#1976d2;dashed=0;edgeStyle=none;rounded=0;curved=0;html=1;startArrow=classic;endArrow=classic;fontSize=24;" parent="dc_1_0" edge="1">
          <mxGeometry relative="1" as="geometry">
            <mxPoint x="1250" y="300" as="sourcePoint" />
            <mxPoint x="1219" y="300" as="targetPoint" />
          </mxGeometry>
        </mxCell>
        <mxCell id="IJFUQDZvneYW4hHzy4Lg-126" value="" style="strokeWidth=2;strokeColor=#1976d2;dashed=0;edgeStyle=none;rounded=0;curved=0;html=1;startArrow=classic;endArrow=classic;fontSize=24;" parent="env_1" source="IJFUQDZvneYW4hHzy4Lg-115" target="device_1_1_3_0" edge="1">
          <mxGeometry relative="1" as="geometry">
            <mxPoint x="1811" y="163" as="sourcePoint" />
            <mxPoint x="1470" y="335" as="targetPoint" />
          </mxGeometry>
        </mxCell>
        <mxCell id="IJFUQDZvneYW4hHzy4Lg-127" value="" style="strokeWidth=2;strokeColor=#1976d2;dashed=0;edgeStyle=none;rounded=0;curved=0;html=1;startArrow=classic;endArrow=classic;fontSize=24;" parent="env_1" source="IJFUQDZvneYW4hHzy4Lg-116" target="device_1_1_3_1" edge="1">
          <mxGeometry relative="1" as="geometry">
            <mxPoint x="1901" y="163" as="sourcePoint" />
            <mxPoint x="1560" y="335" as="targetPoint" />
          </mxGeometry>
        </mxCell>
        <mxCell id="IJFUQDZvneYW4hHzy4Lg-128" value="" style="strokeWidth=2;strokeColor=#1976d2;dashed=0;edgeStyle=none;rounded=0;curved=0;html=1;startArrow=classic;endArrow=classic;fontSize=24;" parent="env_1" source="IJFUQDZvneYW4hHzy4Lg-122" target="IJFUQDZvneYW4hHzy4Lg-116" edge="1">
          <mxGeometry relative="1" as="geometry">
            <mxPoint x="2252" y="-133" as="sourcePoint" />
            <mxPoint x="1911" y="39" as="targetPoint" />
          </mxGeometry>
        </mxCell>
        <mxCell id="IJFUQDZvneYW4hHzy4Lg-129" value="" style="strokeWidth=2;strokeColor=#1976d2;dashed=0;edgeStyle=none;rounded=0;curved=0;html=1;startArrow=classic;endArrow=classic;fontSize=24;" parent="env_1" source="IJFUQDZvneYW4hHzy4Lg-115" target="device_1_1_0_0" edge="1">
          <mxGeometry relative="1" as="geometry">
            <mxPoint x="2101" y="-138" as="sourcePoint" />
            <mxPoint x="1760" y="34" as="targetPoint" />
          </mxGeometry>
        </mxCell>
        <mxCell id="IJFUQDZvneYW4hHzy4Lg-130" value="" style="strokeWidth=2;strokeColor=#1976d2;dashed=0;edgeStyle=none;rounded=0;curved=0;html=1;startArrow=classic;endArrow=classic;fontSize=24;" parent="env_1" source="device_1_1_0_1" target="IJFUQDZvneYW4hHzy4Lg-116" edge="1">
          <mxGeometry relative="1" as="geometry">
            <mxPoint x="2162" y="-133" as="sourcePoint" />
            <mxPoint x="1821" y="39" as="targetPoint" />
          </mxGeometry>
        </mxCell>
        <mxCell id="edge_4" value="" style="strokeWidth=2;strokeColor=#1976d2;dashed=0;edgeStyle=none;rounded=0;curved=0;html=1;startArrow=classic;endArrow=classic;fontSize=24;" parent="1" source="device_1_0_0_0" target="device_1_0_1_2" edge="1">
          <mxGeometry relative="1" as="geometry" />
        </mxCell>
        <mxCell id="edge_10" value="" style="strokeWidth=2;strokeColor=#1976d2;dashed=0;edgeStyle=none;rounded=0;curved=0;html=1;startArrow=classic;endArrow=classic;fontSize=24;" parent="1" source="device_1_0_0_1" target="device_1_0_1_2" edge="1">
          <mxGeometry relative="1" as="geometry" />
        </mxCell>
        <mxCell id="edge_47" value="" style="strokeWidth=2;strokeColor=#1976d2;dashed=0;edgeStyle=none;rounded=0;curved=0;html=1;startArrow=classic;endArrow=classic;fontSize=24;" parent="1" source="device_1_1_0_0" target="device_1_1_0_1" edge="1">
          <mxGeometry relative="1" as="geometry" />
        </mxCell>
        <mxCell id="edge_71" value="" style="strokeWidth=2;strokeColor=#1976d2;dashed=0;edgeStyle=none;rounded=0;curved=0;html=1;startArrow=classic;endArrow=classic;fontSize=24;" parent="1" source="device_1_1_3_0" target="device_1_1_1_6" edge="1">
          <mxGeometry relative="1" as="geometry" />
        </mxCell>
        <mxCell id="edge_72" value="" style="strokeWidth=2;strokeColor=#1976d2;dashed=0;edgeStyle=none;rounded=0;curved=0;html=1;startArrow=classic;endArrow=classic;fontSize=24;" parent="1" source="device_1_1_3_0" target="device_1_1_1_7" edge="1">
          <mxGeometry relative="1" as="geometry" />
        </mxCell>
        <mxCell id="edge_74" value="" style="strokeWidth=2;strokeColor=#1976d2;dashed=0;edgeStyle=none;rounded=0;curved=0;html=1;startArrow=classic;endArrow=classic;fontSize=24;" parent="1" source="device_1_1_3_1" target="device_1_1_1_6" edge="1">
          <mxGeometry relative="1" as="geometry" />
        </mxCell>
        <mxCell id="edge_75" value="" style="strokeWidth=2;strokeColor=#1976d2;dashed=0;edgeStyle=none;rounded=0;curved=0;html=1;startArrow=classic;endArrow=classic;fontSize=24;" parent="1" source="device_1_1_3_1" target="device_1_1_1_7" edge="1">
          <mxGeometry relative="1" as="geometry" />
        </mxCell>
        <mxCell id="IJFUQDZvneYW4hHzy4Lg-1" value="总局机房" style="swimlane;fontStyle=1;align=center;verticalAlign=top;horizontal=1;startSize=30;collapsible=0;marginBottom=0;fillColor=#e1d5e7;strokeColor=#9673a6;fontSize=24;" parent="1" vertex="1">
          <mxGeometry x="1920" y="-1830" width="2740" height="480" as="geometry" />
        </mxCell>
        <mxCell id="IJFUQDZvneYW4hHzy4Lg-2" value="互联网区" style="swimlane;fontStyle=1;align=center;verticalAlign=top;horizontal=1;startSize=25;collapsible=0;marginBottom=0;fillColor=#d5e8d4;strokeColor=#82b366;fontSize=24;" parent="IJFUQDZvneYW4hHzy4Lg-1" vertex="1">
          <mxGeometry x="30" y="40" width="1430" height="405" as="geometry" />
        </mxCell>
        <mxCell id="IJFUQDZvneYW4hHzy4Lg-3" value="网络核心" style="swimlane;fontStyle=1;align=center;verticalAlign=top;horizontal=1;startSize=20;collapsible=0;marginBottom=0;fillColor=#fff2cc;strokeColor=#d6b656;fontSize=24;" parent="IJFUQDZvneYW4hHzy4Lg-2" vertex="1">
          <mxGeometry x="850" y="100" width="330" height="130" as="geometry" />
        </mxCell>
        <mxCell id="IJFUQDZvneYW4hHzy4Lg-4" value="交换机1" style="rounded=1;whiteSpace=wrap;html=1;fillColor=#CCCCFF;strokeColor=#82b366;fontSize=24;" parent="IJFUQDZvneYW4hHzy4Lg-3" vertex="1">
          <mxGeometry x="20" y="50" width="120" height="60" as="geometry" />
        </mxCell>
        <mxCell id="IJFUQDZvneYW4hHzy4Lg-5" value="交换机2" style="rounded=1;whiteSpace=wrap;html=1;fillColor=#CCCCFF;strokeColor=#82b366;fontSize=24;" parent="IJFUQDZvneYW4hHzy4Lg-3" vertex="1">
          <mxGeometry x="170" y="50" width="120" height="60" as="geometry" />
        </mxCell>
        <mxCell id="IJFUQDZvneYW4hHzy4Lg-42" value="" style="strokeWidth=2;strokeColor=#1976d2;dashed=0;edgeStyle=none;rounded=0;curved=0;html=1;startArrow=classic;endArrow=classic;fontSize=24;" parent="IJFUQDZvneYW4hHzy4Lg-3" edge="1">
          <mxGeometry relative="1" as="geometry">
            <mxPoint x="170" y="75" as="sourcePoint" />
            <mxPoint x="100" y="75" as="targetPoint" />
          </mxGeometry>
        </mxCell>
        <mxCell id="IJFUQDZvneYW4hHzy4Lg-44" value="" style="strokeWidth=2;strokeColor=#1976d2;dashed=0;edgeStyle=none;rounded=0;curved=0;html=1;startArrow=classic;endArrow=classic;fontSize=24;" parent="IJFUQDZvneYW4hHzy4Lg-3" edge="1">
          <mxGeometry relative="1" as="geometry">
            <mxPoint x="170" y="91" as="sourcePoint" />
            <mxPoint x="100" y="91" as="targetPoint" />
          </mxGeometry>
        </mxCell>
        <mxCell id="IJFUQDZvneYW4hHzy4Lg-24" value="楼宇核心交换机" style="swimlane;fontStyle=1;align=center;verticalAlign=top;horizontal=1;startSize=20;collapsible=0;marginBottom=0;fillColor=#fff2cc;strokeColor=#d6b656;fontSize=24;" parent="IJFUQDZvneYW4hHzy4Lg-2" vertex="1">
          <mxGeometry x="480" y="100" width="321" height="130" as="geometry" />
        </mxCell>
        <mxCell id="IJFUQDZvneYW4hHzy4Lg-26" value="汇聚交换机2" style="rounded=1;whiteSpace=wrap;html=1;fillColor=#d5e8d4;strokeColor=#82b366;fontSize=24;" parent="IJFUQDZvneYW4hHzy4Lg-24" vertex="1">
          <mxGeometry x="170" y="50" width="120" height="60" as="geometry" />
        </mxCell>
        <mxCell id="IJFUQDZvneYW4hHzy4Lg-27" value="安全运维管理区" style="swimlane;fontStyle=1;align=center;verticalAlign=top;horizontal=1;startSize=20;collapsible=0;marginBottom=0;fillColor=#fff2cc;strokeColor=#d6b656;fontSize=24;" parent="IJFUQDZvneYW4hHzy4Lg-2" vertex="1">
          <mxGeometry x="570" y="260" width="150" height="130" as="geometry" />
        </mxCell>
        <mxCell id="IJFUQDZvneYW4hHzy4Lg-28" value="TAP" style="rounded=1;whiteSpace=wrap;html=1;fillColor=#d5e8d4;strokeColor=#82b366;fontSize=24;" parent="IJFUQDZvneYW4hHzy4Lg-27" vertex="1">
          <mxGeometry x="20" y="50" width="120" height="60" as="geometry" />
        </mxCell>
        <mxCell id="IJFUQDZvneYW4hHzy4Lg-25" value="汇聚交换机1" style="rounded=1;whiteSpace=wrap;html=1;fillColor=#d5e8d4;strokeColor=#82b366;fontSize=24;" parent="IJFUQDZvneYW4hHzy4Lg-2" vertex="1">
          <mxGeometry x="510" y="150" width="120" height="60" as="geometry" />
        </mxCell>
        <mxCell id="IJFUQDZvneYW4hHzy4Lg-53" value="体育业务网" style="swimlane;fontStyle=1;align=center;verticalAlign=top;horizontal=1;startSize=25;collapsible=0;marginBottom=0;fillColor=#d5e8d4;strokeColor=#82b366;fontSize=24;" parent="IJFUQDZvneYW4hHzy4Lg-1" vertex="1">
          <mxGeometry x="1498" y="40" width="1200" height="410" as="geometry" />
        </mxCell>
        <mxCell id="IJFUQDZvneYW4hHzy4Lg-91" value="DWDM" style="swimlane;fontStyle=1;align=center;verticalAlign=top;horizontal=1;startSize=20;collapsible=0;marginBottom=0;fillColor=#fff2cc;strokeColor=#d6b656;fontSize=24;" parent="IJFUQDZvneYW4hHzy4Lg-53" vertex="1">
          <mxGeometry x="-188" y="310" width="360" height="130" as="geometry" />
        </mxCell>
        <mxCell id="IJFUQDZvneYW4hHzy4Lg-92" value="OptiXtrans E6616" style="rounded=1;whiteSpace=wrap;html=1;fillColor=#d5e8d4;strokeColor=#82b366;fontSize=24;" parent="IJFUQDZvneYW4hHzy4Lg-91" vertex="1">
          <mxGeometry x="20" y="50" width="120" height="60" as="geometry" />
        </mxCell>
        <mxCell id="IJFUQDZvneYW4hHzy4Lg-93" value="OptiXtrans E6616" style="rounded=1;whiteSpace=wrap;html=1;fillColor=#d5e8d4;strokeColor=#82b366;fontSize=24;" parent="IJFUQDZvneYW4hHzy4Lg-91" vertex="1">
          <mxGeometry x="220" y="50" width="110" height="60" as="geometry" />
        </mxCell>
        <mxCell id="IJFUQDZvneYW4hHzy4Lg-97" value="网络核心" style="swimlane;fontStyle=1;align=center;verticalAlign=top;horizontal=1;startSize=20;collapsible=0;marginBottom=0;fillColor=#fff2cc;strokeColor=#d6b656;fontSize=24;" parent="IJFUQDZvneYW4hHzy4Lg-53" vertex="1">
          <mxGeometry x="206" y="110" width="314" height="130" as="geometry" />
        </mxCell>
        <mxCell id="IJFUQDZvneYW4hHzy4Lg-98" value="交换机1" style="rounded=1;whiteSpace=wrap;html=1;fillColor=#CCCCFF;strokeColor=#82b366;fontSize=24;" parent="IJFUQDZvneYW4hHzy4Lg-97" vertex="1">
          <mxGeometry x="20" y="50" width="120" height="60" as="geometry" />
        </mxCell>
        <mxCell id="IJFUQDZvneYW4hHzy4Lg-99" value="交换机2" style="rounded=1;whiteSpace=wrap;html=1;fillColor=#CCCCFF;strokeColor=#82b366;fontSize=24;" parent="IJFUQDZvneYW4hHzy4Lg-97" vertex="1">
          <mxGeometry x="170" y="50" width="120" height="60" as="geometry" />
        </mxCell>
        <mxCell id="IJFUQDZvneYW4hHzy4Lg-100" value="" style="strokeWidth=2;strokeColor=#1976d2;dashed=0;edgeStyle=none;rounded=0;curved=0;html=1;startArrow=classic;endArrow=classic;fontSize=24;" parent="IJFUQDZvneYW4hHzy4Lg-97" edge="1">
          <mxGeometry relative="1" as="geometry">
            <mxPoint x="170" y="75" as="sourcePoint" />
            <mxPoint x="100" y="75" as="targetPoint" />
          </mxGeometry>
        </mxCell>
        <mxCell id="IJFUQDZvneYW4hHzy4Lg-101" value="" style="strokeWidth=2;strokeColor=#1976d2;dashed=0;edgeStyle=none;rounded=0;curved=0;html=1;startArrow=classic;endArrow=classic;fontSize=24;" parent="IJFUQDZvneYW4hHzy4Lg-97" edge="1">
          <mxGeometry relative="1" as="geometry">
            <mxPoint x="170" y="91" as="sourcePoint" />
            <mxPoint x="100" y="91" as="targetPoint" />
          </mxGeometry>
        </mxCell>
        <mxCell id="IJFUQDZvneYW4hHzy4Lg-102" value="楼宇核心交换机" style="swimlane;fontStyle=1;align=center;verticalAlign=top;horizontal=1;startSize=20;collapsible=0;marginBottom=0;fillColor=#fff2cc;strokeColor=#d6b656;fontSize=24;" parent="IJFUQDZvneYW4hHzy4Lg-53" vertex="1">
          <mxGeometry x="546" y="110" width="514" height="130" as="geometry" />
        </mxCell>
        <mxCell id="IJFUQDZvneYW4hHzy4Lg-103" value="汇聚交换机1" style="rounded=1;whiteSpace=wrap;html=1;fillColor=#d5e8d4;strokeColor=#82b366;fontSize=24;" parent="IJFUQDZvneYW4hHzy4Lg-102" vertex="1">
          <mxGeometry x="20" y="50" width="120" height="60" as="geometry" />
        </mxCell>
        <mxCell id="IJFUQDZvneYW4hHzy4Lg-104" value="汇聚交换机2" style="rounded=1;whiteSpace=wrap;html=1;fillColor=#d5e8d4;strokeColor=#82b366;fontSize=24;" parent="IJFUQDZvneYW4hHzy4Lg-102" vertex="1">
          <mxGeometry x="170" y="50" width="120" height="60" as="geometry" />
        </mxCell>
        <mxCell id="IJFUQDZvneYW4hHzy4Lg-106" value="TAP" style="rounded=1;whiteSpace=wrap;html=1;fillColor=#d5e8d4;strokeColor=#82b366;fontSize=24;" parent="IJFUQDZvneYW4hHzy4Lg-102" vertex="1">
          <mxGeometry x="350" y="50" width="120" height="60" as="geometry" />
        </mxCell>
        <mxCell id="IJFUQDZvneYW4hHzy4Lg-107" value="" style="strokeWidth=2;strokeColor=#1976d2;dashed=0;edgeStyle=none;rounded=0;curved=0;html=1;startArrow=classic;endArrow=classic;fontSize=24;" parent="IJFUQDZvneYW4hHzy4Lg-102" edge="1">
          <mxGeometry relative="1" as="geometry">
            <mxPoint x="170" y="88" as="sourcePoint" />
            <mxPoint x="100" y="88" as="targetPoint" />
          </mxGeometry>
        </mxCell>
        <mxCell id="IJFUQDZvneYW4hHzy4Lg-108" value="" style="strokeWidth=2;strokeColor=#1976d2;dashed=0;edgeStyle=none;rounded=0;curved=0;html=1;startArrow=classic;endArrow=classic;fontSize=24;" parent="IJFUQDZvneYW4hHzy4Lg-102" edge="1">
          <mxGeometry relative="1" as="geometry">
            <mxPoint x="170" y="72" as="sourcePoint" />
            <mxPoint x="100" y="72" as="targetPoint" />
          </mxGeometry>
        </mxCell>
        <mxCell id="IJFUQDZvneYW4hHzy4Lg-110" value="" style="strokeWidth=2;strokeColor=#1976d2;dashed=0;edgeStyle=none;rounded=0;curved=0;html=1;startArrow=classic;endArrow=classic;fontSize=24;" parent="IJFUQDZvneYW4hHzy4Lg-53" source="IJFUQDZvneYW4hHzy4Lg-98" target="IJFUQDZvneYW4hHzy4Lg-92" edge="1">
          <mxGeometry relative="1" as="geometry">
            <mxPoint x="-568" y="594.8699999999999" as="sourcePoint" />
            <mxPoint x="82" y="759.8699999999999" as="targetPoint" />
          </mxGeometry>
        </mxCell>
        <mxCell id="IJFUQDZvneYW4hHzy4Lg-109" value="" style="strokeWidth=2;strokeColor=#1976d2;dashed=0;edgeStyle=none;rounded=0;curved=0;html=1;startArrow=classic;endArrow=classic;fontSize=24;" parent="IJFUQDZvneYW4hHzy4Lg-53" source="IJFUQDZvneYW4hHzy4Lg-93" target="IJFUQDZvneYW4hHzy4Lg-99" edge="1">
          <mxGeometry relative="1" as="geometry">
            <mxPoint x="-828" y="678.8699999999999" as="sourcePoint" />
            <mxPoint x="82" y="768.8699999999999" as="targetPoint" />
          </mxGeometry>
        </mxCell>
        <mxCell id="IJFUQDZvneYW4hHzy4Lg-111" value="" style="strokeWidth=2;strokeColor=#1976d2;dashed=0;edgeStyle=none;rounded=0;curved=0;html=1;startArrow=classic;endArrow=classic;fontSize=24;" parent="IJFUQDZvneYW4hHzy4Lg-53" source="IJFUQDZvneYW4hHzy4Lg-92" target="IJFUQDZvneYW4hHzy4Lg-103" edge="1">
          <mxGeometry relative="1" as="geometry">
            <mxPoint x="222" y="571.75" as="sourcePoint" />
            <mxPoint x="522" y="419.75" as="targetPoint" />
          </mxGeometry>
        </mxCell>
        <mxCell id="IJFUQDZvneYW4hHzy4Lg-112" value="" style="strokeWidth=2;strokeColor=#1976d2;dashed=0;edgeStyle=none;rounded=0;curved=0;html=1;startArrow=classic;endArrow=classic;fontSize=24;" parent="IJFUQDZvneYW4hHzy4Lg-53" source="IJFUQDZvneYW4hHzy4Lg-93" target="IJFUQDZvneYW4hHzy4Lg-104" edge="1">
          <mxGeometry relative="1" as="geometry">
            <mxPoint x="382" y="572" as="sourcePoint" />
            <mxPoint x="682" y="420" as="targetPoint" />
          </mxGeometry>
        </mxCell>
        <mxCell id="IJFUQDZvneYW4hHzy4Lg-113" value="" style="strokeWidth=2;strokeColor=#1976d2;dashed=0;edgeStyle=none;rounded=0;curved=0;html=1;startArrow=classic;endArrow=classic;fontSize=24;" parent="IJFUQDZvneYW4hHzy4Lg-53" source="IJFUQDZvneYW4hHzy4Lg-93" target="IJFUQDZvneYW4hHzy4Lg-106" edge="1">
          <mxGeometry relative="1" as="geometry">
            <mxPoint x="3520" y="-1666" as="sourcePoint" />
            <mxPoint x="4110" y="-1838" as="targetPoint" />
          </mxGeometry>
        </mxCell>
        <mxCell id="IJFUQDZvneYW4hHzy4Lg-35" value="" style="strokeWidth=2;strokeColor=#1976d2;dashed=0;edgeStyle=none;rounded=0;curved=0;html=1;startArrow=classic;endArrow=classic;fontSize=24;" parent="IJFUQDZvneYW4hHzy4Lg-1" source="IJFUQDZvneYW4hHzy4Lg-25" target="IJFUQDZvneYW4hHzy4Lg-92" edge="1">
          <mxGeometry relative="1" as="geometry">
            <mxPoint x="803.333333333333" y="700" as="targetPoint" />
          </mxGeometry>
        </mxCell>
        <mxCell id="IJFUQDZvneYW4hHzy4Lg-95" value="" style="strokeWidth=2;strokeColor=#1976d2;dashed=0;edgeStyle=none;rounded=0;curved=0;html=1;startArrow=classic;endArrow=classic;fontSize=24;" parent="IJFUQDZvneYW4hHzy4Lg-1" source="IJFUQDZvneYW4hHzy4Lg-4" target="IJFUQDZvneYW4hHzy4Lg-92" edge="1">
          <mxGeometry relative="1" as="geometry">
            <mxPoint x="980" y="648.54" as="sourcePoint" />
            <mxPoint x="1116" y="741.54" as="targetPoint" />
          </mxGeometry>
        </mxCell>
        <mxCell id="IJFUQDZvneYW4hHzy4Lg-96" value="" style="strokeWidth=2;strokeColor=#1976d2;dashed=0;edgeStyle=none;rounded=0;curved=0;html=1;startArrow=classic;endArrow=classic;fontSize=24;" parent="IJFUQDZvneYW4hHzy4Lg-1" source="IJFUQDZvneYW4hHzy4Lg-28" target="IJFUQDZvneYW4hHzy4Lg-92" edge="1">
          <mxGeometry relative="1" as="geometry">
            <mxPoint x="260" y="769.73" as="sourcePoint" />
            <mxPoint x="396" y="862.73" as="targetPoint" />
          </mxGeometry>
        </mxCell>
        <mxCell id="IJFUQDZvneYW4hHzy4Lg-36" value="" style="strokeWidth=2;strokeColor=#1976d2;dashed=0;edgeStyle=none;rounded=0;curved=0;html=1;startArrow=classic;endArrow=classic;fontSize=24;" parent="IJFUQDZvneYW4hHzy4Lg-1" source="IJFUQDZvneYW4hHzy4Lg-26" target="IJFUQDZvneYW4hHzy4Lg-93" edge="1">
          <mxGeometry relative="1" as="geometry">
            <mxPoint x="810" y="700.612244897959" as="targetPoint" />
          </mxGeometry>
        </mxCell>
        <mxCell id="IJFUQDZvneYW4hHzy4Lg-94" value="" style="strokeWidth=2;strokeColor=#1976d2;dashed=0;edgeStyle=none;rounded=0;curved=0;html=1;startArrow=classic;endArrow=classic;fontSize=24;" parent="IJFUQDZvneYW4hHzy4Lg-1" source="IJFUQDZvneYW4hHzy4Lg-5" target="IJFUQDZvneYW4hHzy4Lg-93" edge="1">
          <mxGeometry relative="1" as="geometry">
            <mxPoint x="1070" y="639.54" as="sourcePoint" />
            <mxPoint x="1300" y="746.54" as="targetPoint" />
          </mxGeometry>
        </mxCell>
        <mxCell id="IJFUQDZvneYW4hHzy4Lg-117" value="" style="strokeWidth=2;strokeColor=#1976d2;dashed=0;edgeStyle=none;rounded=0;curved=0;html=1;startArrow=classic;endArrow=classic;fontSize=24;" parent="1" source="IJFUQDZvneYW4hHzy4Lg-93" target="IJFUQDZvneYW4hHzy4Lg-116" edge="1">
          <mxGeometry relative="1" as="geometry">
            <mxPoint x="3340" y="-1289.53" as="sourcePoint" />
            <mxPoint x="3700" y="-1130.53" as="targetPoint" />
          </mxGeometry>
        </mxCell>
        <mxCell id="IJFUQDZvneYW4hHzy4Lg-118" value="" style="strokeWidth=2;strokeColor=#1976d2;dashed=0;edgeStyle=none;rounded=0;curved=0;html=1;startArrow=classic;endArrow=classic;fontSize=24;" parent="1" source="IJFUQDZvneYW4hHzy4Lg-92" target="IJFUQDZvneYW4hHzy4Lg-115" edge="1">
          <mxGeometry relative="1" as="geometry">
            <mxPoint x="3280.27" y="-1370" as="sourcePoint" />
            <mxPoint x="3288.27" y="-1020" as="targetPoint" />
          </mxGeometry>
        </mxCell>
      </root>
    </mxGraphModel>
  </diagram>
</mxfile>
